<mxfile host="app.diagrams.net" agent="Mozilla/5.0 (Windows NT 10.0; Win64; x64) AppleWebKit/537.36 (KHTML, like Gecko) Chrome/131.0.0.0 Safari/537.36" version="26.0.6">
  <diagram name="soa" id="nfpX_JXY3w4-xvvaQlQ7">
    <mxGraphModel dx="2314" dy="1098" grid="1" gridSize="10" guides="1" tooltips="1" connect="1" arrows="1" fold="1" page="1" pageScale="1" pageWidth="827" pageHeight="1169" math="0" shadow="0">
      <root>
        <mxCell id="0" />
        <mxCell id="1" parent="0" />
        <mxCell id="2WjeOXfQwPoWgHDXvuR0-16" value="&lt;span style=&quot;font-size: 17px;&quot;&gt;Service Bus&lt;/span&gt;" style="rounded=1;whiteSpace=wrap;html=1;" vertex="1" parent="1">
          <mxGeometry x="180" y="230" width="410" height="30" as="geometry" />
        </mxCell>
        <mxCell id="2WjeOXfQwPoWgHDXvuR0-17" value="" style="endArrow=none;startArrow=classic;html=1;rounded=0;entryX=0.146;entryY=1.019;entryDx=0;entryDy=0;entryPerimeter=0;startFill=1;endFill=0;" edge="1" parent="1" target="2WjeOXfQwPoWgHDXvuR0-16">
          <mxGeometry width="50" height="50" relative="1" as="geometry">
            <mxPoint x="240.28" y="330" as="sourcePoint" />
            <mxPoint x="239.73000000000005" y="261.35" as="targetPoint" />
          </mxGeometry>
        </mxCell>
        <mxCell id="2WjeOXfQwPoWgHDXvuR0-18" value="&lt;font style=&quot;font-size: 17px;&quot;&gt;Consumer&lt;/font&gt;" style="rounded=1;whiteSpace=wrap;html=1;" vertex="1" parent="1">
          <mxGeometry x="180" y="120" width="120" height="40" as="geometry" />
        </mxCell>
        <mxCell id="2WjeOXfQwPoWgHDXvuR0-19" value="&lt;font style=&quot;font-size: 17px;&quot;&gt;Consumer&lt;/font&gt;" style="rounded=1;whiteSpace=wrap;html=1;" vertex="1" parent="1">
          <mxGeometry x="325" y="120" width="120" height="40" as="geometry" />
        </mxCell>
        <mxCell id="2WjeOXfQwPoWgHDXvuR0-20" value="&lt;font style=&quot;font-size: 17px;&quot;&gt;Consumer&lt;/font&gt;" style="rounded=1;whiteSpace=wrap;html=1;" vertex="1" parent="1">
          <mxGeometry x="470" y="120" width="120" height="40" as="geometry" />
        </mxCell>
        <mxCell id="2WjeOXfQwPoWgHDXvuR0-21" value="" style="endArrow=classic;startArrow=classic;html=1;rounded=0;entryX=0.145;entryY=1.045;entryDx=0;entryDy=0;entryPerimeter=0;" edge="1" parent="1">
          <mxGeometry width="50" height="50" relative="1" as="geometry">
            <mxPoint x="240.5" y="230" as="sourcePoint" />
            <mxPoint x="239.5" y="161" as="targetPoint" />
          </mxGeometry>
        </mxCell>
        <mxCell id="2WjeOXfQwPoWgHDXvuR0-22" value="" style="endArrow=classic;startArrow=classic;html=1;rounded=0;entryX=0.145;entryY=1.045;entryDx=0;entryDy=0;entryPerimeter=0;" edge="1" parent="1">
          <mxGeometry width="50" height="50" relative="1" as="geometry">
            <mxPoint x="385.5" y="230" as="sourcePoint" />
            <mxPoint x="384.5" y="161" as="targetPoint" />
          </mxGeometry>
        </mxCell>
        <mxCell id="2WjeOXfQwPoWgHDXvuR0-23" value="" style="endArrow=classic;startArrow=classic;html=1;rounded=0;entryX=0.145;entryY=1.045;entryDx=0;entryDy=0;entryPerimeter=0;" edge="1" parent="1">
          <mxGeometry width="50" height="50" relative="1" as="geometry">
            <mxPoint x="530.5" y="230" as="sourcePoint" />
            <mxPoint x="529.5" y="161" as="targetPoint" />
          </mxGeometry>
        </mxCell>
        <mxCell id="2WjeOXfQwPoWgHDXvuR0-24" value="&lt;font style=&quot;font-size: 17px;&quot;&gt;Provider&lt;/font&gt;" style="rounded=1;whiteSpace=wrap;html=1;" vertex="1" parent="1">
          <mxGeometry x="325" y="330" width="120" height="40" as="geometry" />
        </mxCell>
        <mxCell id="2WjeOXfQwPoWgHDXvuR0-25" value="" style="endArrow=classic;startArrow=classic;html=1;rounded=0;entryX=0.5;entryY=1;entryDx=0;entryDy=0;" edge="1" parent="1" target="2WjeOXfQwPoWgHDXvuR0-16">
          <mxGeometry width="50" height="50" relative="1" as="geometry">
            <mxPoint x="385.5" y="330" as="sourcePoint" />
            <mxPoint x="384.5" y="261" as="targetPoint" />
          </mxGeometry>
        </mxCell>
        <mxCell id="2WjeOXfQwPoWgHDXvuR0-26" value="&lt;font style=&quot;font-size: 17px;&quot;&gt;Provider&lt;/font&gt;" style="rounded=1;whiteSpace=wrap;html=1;" vertex="1" parent="1">
          <mxGeometry x="470" y="330" width="120" height="40" as="geometry" />
        </mxCell>
        <mxCell id="2WjeOXfQwPoWgHDXvuR0-27" value="" style="endArrow=classic;startArrow=classic;html=1;rounded=0;entryX=0.145;entryY=1.045;entryDx=0;entryDy=0;entryPerimeter=0;" edge="1" parent="1">
          <mxGeometry width="50" height="50" relative="1" as="geometry">
            <mxPoint x="530.5" y="329" as="sourcePoint" />
            <mxPoint x="529.5" y="260" as="targetPoint" />
          </mxGeometry>
        </mxCell>
        <mxCell id="2WjeOXfQwPoWgHDXvuR0-28" value="&lt;font style=&quot;font-size: 16px;&quot;&gt;Registry&lt;/font&gt;" style="shape=cylinder3;whiteSpace=wrap;html=1;boundedLbl=1;backgroundOutline=1;size=2.9206542968748863;" vertex="1" parent="1">
          <mxGeometry x="185" y="330" width="110" height="40" as="geometry" />
        </mxCell>
      </root>
    </mxGraphModel>
  </diagram>
</mxfile>
